<svg xmlns="http://www.w3.org/2000/svg" width="197" height="197" viewBox="0 0 197 197">
<!-- SVG created with Arrow, by QuiverAI (https://quiver.ai) -->
  <path d="m31.43 80.42h-23.85c-0.87 0-1.58 0.7-1.58 1.59v25.91c0 0.89 0.71 1.59 1.58 1.59h23.85c1.02 0 1.82-0.8 1.82-1.8v-3.72c0-1.06-1.33-1.54-2.12-0.85l-0.74 0.67v2.67h-21.17v-23.04h21.17v2.67l0.74 0.65c0.76 0.69 2.12 0.21 2.12-0.85v-3.72c0-0.97-0.8-1.77-1.82-1.77z" fill="#FF6B35"/>
  <path d="m23.46 87.28 5.83 7.21-5.79 6.21c-1.04 1.12-0.07 2.75 1.35 2.23 0.38-0.13 0.62-0.38 0.87-0.66l7.36-7.47c0.67-0.69 0.67-1.59 0.04-2.32l-6.94-6.47c-0.56-0.55-1.46 0-1.46 0-0.8 0.17-1.77 0.52-1.26 1.27z" fill="#FF6B35"/>
  <path d="m12.44 87.38v14.47c0 0.67 0.47 1.12 1.09 1.12h5.28c0.67 0 1.14-0.52 1.14-1.15v-4l4.59-3.74-4.62-4.92v-1.81c0-0.66-0.53-1.14-1.15-1.14h-5.21c-0.65 0-1.12 0.52-1.12 1.17z" fill="#FF6B35"/>
  <path d="m44.29 86.59h4.65c0.59 0 1.04 0.35 1.24 0.93l5.24 14.06 5.24-14.1c0.2-0.54 0.68-0.89 1.27-0.89h5.2c0.91 0 1.56 0.93 1.22 1.79l-9.03 20.31c-0.28 0.62-0.72 0.82-1.24 0.82h-5.31c-0.55 0-0.99-0.27-1.23-0.89l-8.37-20.31c-0.38-0.83 0.21-1.72 1.12-1.72z" fill="#FF6B35"/>
  <path d="m92.17 86.28h-4.25c-0.69 0-1.1 0.45-1.1 1.14v0.89c-2.01-1.68-4.19-2.51-7-2.51-6.97 0-11.46 5.09-11.46 11.91 0 6.89 4.25 11.97 11.19 11.97 3.18 0 5.56-1.12 7.54-2.97v1.57c0 0.75 0.41 1.2 1.17 1.2h3.87c0.73 0 1.21-0.45 1.21-1.2v-20.9c0.03-0.65-0.48-1.1-1.17-1.1zm-11.16 17.41c-4.12 0-6.03-3.13-6.03-6.19 0-3.22 1.91-5.91 5.64-5.91 4.19 0 6.3 2.8 6.3 5.95 0 3.09-2.01 6.15-5.91 6.15z" fill="#FF6B35"/>
  <path d="m97.82 86.28h4.76c0.69 0 1.13 0.45 1.13 1.14v11.19c0 2.8 1.3 4.92 4.62 4.92 2.98 0 5.03-1.95 5.03-5.27v-10.84c0-0.69 0.44-1.14 1.14-1.14h4.31c0.66 0 1.14 0.45 1.14 1.14v20.89c0 0.72-0.48 1.2-1.14 1.2h-4.12c-0.76 0-1.24-0.34-1.24-1.34v-1.53c-1.45 1.92-3.46 3.15-6.84 3.15-5.73 0-9.32-3.32-9.32-9.78v-12.59c0-0.69 0.48-1.14 0.53-1.14z" fill="#FF6B35"/>
  <path d="m125.3 74.71h4.42c0.66 0 1.04 0.45 1.04 1.14v32.43c0 0.75-0.48 1.2-1.14 1.2h-4.35c-0.69 0-1.14-0.45-1.14-1.2v-32.43c0-0.69 0.48-1.14 1.17-1.14z" fill="#FF6B35"/>
  <path d="m134.9 87.01h3.69v-7.2c0-0.58 0.38-0.96 0.97-0.96h4.93c0.56 0 0.93 0.38 0.93 0.96v7.16h4.59c0.59 0 0.96 0.38 0.96 0.97v3.52c0 0.58-0.37 0.96-0.96 0.96h-4.59v7.77c0 2.64 0.93 3.26 2.91 3.26h1.92c0.65 0 1.1 0.41 1.1 1.07v3.59c0 0.65-0.45 1.16-1.17 1.2-1.1 0.07-2.24 0.1-3.44 0.07-5.24-0.17-8.01-2.43-8.01-8.55v-8.45h-3.7c-0.59 0-0.96-0.38-0.96-0.96v-3.52c-0.07-0.52 0.34-0.89 0.83-0.89z" fill="#FF6B35"/>
  <path d="m156.2 74.71h4.42c0.66 0 1.04 0.45 1.04 1.14v32.43c0 0.75-0.48 1.2-1.14 1.2h-4.32c-0.69 0-1.13-0.45-1.13-1.2v-32.43c-0.04-0.69 0.44-1.14 1.13-1.14z" fill="#FF6B35"/>
  <path d="m166 86.53h5.04c0.65 0 1.13 0.34 1.37 0.99l5.51 13.99 5.83-14.13c0.24-0.58 0.75-0.85 1.34-0.85h4.53c0.79 0 1.24 0.82 0.89 1.61l-13.21 30.85h-6.62l3.73-9.64-9.33-21.17c-0.38-0.8 0.1-1.65 0.92-1.65z" fill="#FF6B35"/>
</svg>