<svg xmlns="http://www.w3.org/2000/svg" width="64" height="64" viewBox="1 72 40 40">
<!-- Vaultly icon (cofre + seta) — vetor limpo -->
  <path d="m31.43 80.42h-23.85c-0.87 0-1.58 0.7-1.58 1.59v25.91c0 0.89 0.71 1.59 1.58 1.59h23.85c1.02 0 1.82-0.8 1.82-1.8v-3.72c0-1.06-1.33-1.54-2.12-0.85l-0.74 0.67v2.67h-21.17v-23.04h21.17v2.67l0.74 0.65c0.76 0.69 2.12 0.21 2.12-0.85v-3.72c0-0.97-0.8-1.77-1.82-1.77z" fill="#FF6B35"/>
  <path d="m23.46 87.28 5.83 7.21-5.79 6.21c-1.04 1.12-0.07 2.75 1.35 2.23 0.38-0.13 0.62-0.38 0.87-0.66l7.36-7.47c0.67-0.69 0.67-1.59 0.04-2.32l-6.94-6.47c-0.56-0.55-1.46 0-1.46 0-0.8 0.17-1.77 0.52-1.26 1.27z" fill="#FF6B35"/>
  <path d="m12.44 87.38v14.47c0 0.67 0.47 1.12 1.09 1.12h5.28c0.67 0 1.14-0.52 1.14-1.15v-4l4.59-3.74-4.62-4.92v-1.81c0-0.66-0.53-1.14-1.15-1.14h-5.21c-0.65 0-1.12 0.52-1.12 1.17z" fill="#FF6B35"/>
</svg>
